<?xml version="1.0" encoding="UTF-8"?>
<svg version="1.1" xmlns="http://www.w3.org/2000/svg" width="2000" height="1500">
<path d="M0 0 C660 0 1320 0 2000 0 C2000 495 2000 990 2000 1500 C1340 1500 680 1500 0 1500 C0 1005 0 510 0 0 Z " fill="#122023" transform="translate(0,0)"/>
<path d="M0 0 C4.35978855 3.37740199 8.39736263 7.02389896 12.375 10.83984375 C13.51775391 11.88785156 13.51775391 11.88785156 14.68359375 12.95703125 C36.23240917 33.34811135 46.949521 63.34310471 52.375 91.83984375 C52.54358017 92.71073135 52.71216034 93.58161896 52.885849 94.47889709 C54.19007468 101.66753691 54.68125591 108.57742452 54.67578125 115.875 C54.68404434 117.53932571 54.68404434 117.53932571 54.69247437 119.23727417 C54.70406662 122.79243027 54.6979065 126.34718801 54.6875 129.90234375 C54.68634186 131.11238068 54.68518372 132.3224176 54.68399048 133.56912231 C54.65118075 150.83291371 54.34386808 167.79245637 51.375 184.83984375 C51.25753418 185.5364209 51.14006836 186.23299805 51.01904297 186.95068359 C50.39039977 190.57155863 49.63098693 194.15296694 48.82275391 197.73730469 C48.28425511 200.26595878 47.81964827 202.80431252 47.35546875 205.34765625 C40.97590881 239.8281177 29.24770712 273.13184549 14.375 304.83984375 C13.67552246 306.33161133 13.67552246 306.33161133 12.96191406 307.85351562 C-3.41652131 342.40897914 -24.78575198 374.70400632 -49.19384766 404.10449219 C-50.46138163 405.6414474 -51.70699207 407.19642541 -52.94921875 408.75390625 C-64.16351572 422.80805291 -76.82729937 436.29795767 -90.625 447.83984375 C-91.16479492 448.29343262 -91.70458984 448.74702148 -92.26074219 449.21435547 C-106.84749176 461.42461214 -122.06307625 472.45405214 -138.625 481.83984375 C-139.34429688 482.24976563 -140.06359375 482.6596875 -140.8046875 483.08203125 C-146.89928405 485.61926672 -153.99928134 482.08665471 -159.6875 479.77734375 C-162.00823719 478.8157108 -164.31781105 477.83385006 -166.625 476.83984375 C-165.22298789 472.63380742 -162.28551531 471.78405621 -158.5625 469.83984375 C-140.92525236 460.26102796 -124.93419397 448.04284142 -110.30859375 434.33984375 C-108.01541542 432.20354952 -105.68836739 430.13281609 -103.3125 428.08984375 C-97.67329147 423.18466443 -92.54415609 417.89373943 -87.67578125 412.2265625 C-86.14579948 410.44595514 -84.59870664 408.68002357 -83.04296875 406.921875 C-69.55405731 391.58883964 -57.6122935 375.03934609 -46.625 357.83984375 C-45.9455835 356.77830078 -45.9455835 356.77830078 -45.25244141 355.6953125 C-27.00770635 326.98658881 -13.23118494 296.72171251 -1.625 264.83984375 C-1.33753906 264.05496582 -1.05007813 263.27008789 -0.75390625 262.46142578 C3.46087591 250.83944875 6.41148043 238.82883534 9.375 226.83984375 C9.6740625 225.63972656 9.973125 224.43960938 10.28125 223.203125 C13.11779239 210.91657999 14.69459457 198.3265616 16.375 185.83984375 C16.51010986 184.85611282 16.51010986 184.85611282 16.64794922 183.85250854 C18.08918853 173.2219538 18.77983506 162.75395032 18.75 152.02734375 C18.74945618 151.27893219 18.74891235 150.53052063 18.74835205 149.75942993 C18.61559981 109.54877675 8.75312584 67.47484701 -18.625 36.83984375 C-19.44871094 35.89238281 -19.44871094 35.89238281 -20.2890625 34.92578125 C-34.43070638 19.66952504 -58.26451347 8.9451833 -78.87280273 7.63305664 C-82.48028565 7.5354749 -86.07873977 7.51176942 -89.6875 7.52734375 C-90.96794189 7.53008301 -92.24838379 7.53282227 -93.56762695 7.53564453 C-103.26277741 7.64228567 -112.19242561 8.63747729 -121.625 10.83984375 C-123.64471327 11.24135301 -125.66539728 11.63804697 -127.6875 12.02734375 C-129.00043751 12.2960481 -130.31315183 12.56587054 -131.625 12.83984375 C-130.635 10.36484375 -130.635 10.36484375 -129.625 7.83984375 C-136.07000715 13.29619932 -142.09111079 19.1227598 -148.0625 25.08984375 C-148.95259766 25.96769531 -149.84269531 26.84554687 -150.75976562 27.75 C-156.07481441 33.05340149 -160.97466492 38.5312948 -165.66625977 44.39306641 C-167.22637856 46.34190233 -168.80939742 48.24724497 -170.453125 50.125 C-195.60023281 78.96305428 -215.84579149 113.10984681 -233.625 146.83984375 C-234.11468262 147.76716309 -234.60436523 148.69448242 -235.10888672 149.64990234 C-252.29425855 182.45112803 -265.4650622 217.25984938 -275.625 252.83984375 C-275.84994141 253.6198877 -276.07488281 254.39993164 -276.30664062 255.20361328 C-281.4514712 273.22994941 -285.38855088 291.77278287 -288.09106445 310.31860352 C-288.78516914 313.59616142 -289.55918164 316.05659118 -292.3046875 318.07421875 C-295.50678628 319.13080353 -298.38470334 319.10389509 -301.75 319.08984375 C-302.99007813 319.095 -304.23015625 319.10015625 -305.5078125 319.10546875 C-308.625 318.83984375 -308.625 318.83984375 -310.625 316.83984375 C-310.78169141 313.49709373 -310.09974677 310.14312378 -309.625 306.83984375 C-309.37943359 305.05320312 -309.37943359 305.05320312 -309.12890625 303.23046875 C-295.8002892 212.7129261 -250.8051507 121.53561133 -188.9453125 54.37890625 C-187.04084658 52.29489472 -185.19884698 50.18113289 -183.375 48.02734375 C-175.51334706 38.98924393 -166.77756635 30.55605845 -157.625 22.83984375 C-156.67109375 21.99679687 -155.7171875 21.15375 -154.734375 20.28515625 C-147.71523356 14.10541945 -140.45805871 8.29511367 -133 2.65234375 C-132.1347168 1.99234375 -131.26943359 1.33234375 -130.37792969 0.65234375 C-129.55969727 0.04003906 -128.74146484 -0.57226562 -127.8984375 -1.203125 C-127.17060059 -1.7499292 -126.44276367 -2.2967334 -125.69287109 -2.86010742 C-123.63729922 -4.15242386 -121.99870819 -4.72842093 -119.625 -5.16015625 C-119.625 -4.17015625 -119.625 -3.18015625 -119.625 -2.16015625 C-119.07787354 -2.38155273 -118.53074707 -2.60294922 -117.96704102 -2.83105469 C-106.68161694 -7.36077904 -95.61041896 -11.39644102 -83.65649414 -13.75024414 C-82.21831566 -14.04043783 -80.78543089 -14.35746267 -79.35717773 -14.69311523 C-53.01841081 -20.63155 -22.32030431 -15.38008469 0 0 Z " fill="#1875D0" transform="translate(653.625,475.16015625)"/>
<path d="M0 0 C1.79244141 0.62068359 1.79244141 0.62068359 3.62109375 1.25390625 C27.12568646 9.74117933 43.52608259 26.97055995 54.3684082 49.02026367 C63.86448044 69.33164955 65.34083114 95.02792297 58.20166016 116.38867188 C52.76451776 131.30029276 45.17242409 143.63494791 34 155 C33.31421875 155.69867187 32.6284375 156.39734375 31.921875 157.1171875 C17.75298515 170.60387154 -1.66775304 178.17622098 -21 178.1875 C-22.07378906 178.19974609 -23.14757813 178.21199219 -24.25390625 178.22460938 C-36.53006606 178.24676851 -46.9146076 176.29142731 -58 171 C-59.35738281 170.36964844 -59.35738281 170.36964844 -60.7421875 169.7265625 C-81.68167068 159.22647383 -96.56948238 139.50946287 -104.15625 117.671875 C-110.19471116 98.78011794 -110.89840244 75.79149388 -104 57 C-103.76394043 56.34676758 -103.52788086 55.69353516 -103.28466797 55.02050781 C-94.86886874 32.30707418 -78.35975531 14.32559 -56.80078125 3.375 C-53.89959743 2.10075456 -51.00152346 1.01285977 -48 0 C-47.15308594 -0.31710937 -46.30617188 -0.63421875 -45.43359375 -0.9609375 C-31.82987305 -5.27769312 -13.35492991 -4.97757584 0 0 Z " fill="#122023" transform="translate(1345,529)"/>
<path d="M0 0 C0.71542969 0.51820313 1.43085937 1.03640625 2.16796875 1.5703125 C21.26479003 16.32503093 27.56995169 53.40241129 30.54638672 75.97485352 C31.90815655 87.08301149 32.39799337 98.06392753 32.375 109.25 C32.37545319 110.11953308 32.37590637 110.98906616 32.37637329 111.88494873 C32.35626982 125.21218831 31.61699242 138.37599715 30.1875 151.625 C30.10481873 152.39880005 30.02213745 153.1726001 29.93695068 153.96984863 C28.96256878 162.86277882 27.59923936 171.58448962 25.76098633 180.34619141 C24.99762914 184.01138347 24.30940709 187.68365162 23.640625 191.3671875 C8.96248625 271.22996543 -26.86795432 347.53159512 -76 412 C-76.80995022 413.07417774 -77.61984596 414.14839657 -78.4296875 415.22265625 C-84.57497439 423.32907411 -90.95874513 431.24355581 -97.43115234 439.09033203 C-98.82685171 440.78923656 -100.20573031 442.5002402 -101.58203125 444.21484375 C-108.54872356 452.74575815 -116.30088998 460.51338242 -124.0625 468.3125 C-124.61731049 468.87257751 -125.17212097 469.43265503 -125.7437439 470.00970459 C-132.82665908 477.14451836 -140.08212093 483.78104382 -148 490 C-149.19240266 490.96491581 -150.38395798 491.93088083 -151.57421875 492.8984375 C-187.97311006 521.85313899 -187.97311006 521.85313899 -200 521 C-203.24039098 520.0523451 -206.32404772 518.79957154 -209.4375 517.5 C-210.67790039 516.99919922 -210.67790039 516.99919922 -211.94335938 516.48828125 C-213.96662812 515.6696176 -215.98395162 514.83628674 -218 514 C-216.568676 509.70602801 -213.31849481 508.25750456 -209.6875 505.875 C-208.21873389 504.88867889 -206.7512968 503.90037598 -205.28515625 502.91015625 C-204.55699707 502.41918457 -203.82883789 501.92821289 -203.07861328 501.42236328 C-181.85877033 486.90194925 -162.35387426 469.54169672 -144.2043457 451.38964844 C-142.44175477 449.62924948 -140.67128961 447.87703618 -138.90039062 446.125 C-132.13337 439.39104232 -125.91709027 432.50201101 -120 425 C-118.44074195 423.16390858 -116.87896067 421.32995036 -115.3125 419.5 C-71.89174058 367.34131686 -39.92312232 301.1760612 -23.59863281 235.34375 C-22.80728966 232.24550602 -21.91407187 229.18075056 -21.02099609 226.1105957 C-16.31688231 209.83109083 -13.49628823 193.22976604 -11.32470703 176.44189453 C-11.03280001 174.24666594 -10.70769585 172.05980754 -10.37109375 169.87109375 C-4.73414597 130.73538468 -7.61724194 82.74944583 -25 47 C-25.49886719 45.97326172 -25.49886719 45.97326172 -26.0078125 44.92578125 C-32.65043694 31.42548338 -40.65297747 19.96784388 -51 9 C-51.87785156 8.04287109 -51.87785156 8.04287109 -52.7734375 7.06640625 C-68.16746554 -9.15875476 -91.70202506 -18.23301164 -113.75195312 -19.109375 C-125.22035168 -19.40667632 -136.78547226 -19.6925323 -148 -17 C-148.7209082 -16.82758789 -149.44181641 -16.65517578 -150.18457031 -16.47753906 C-162.28651117 -13.49972816 -173.6728335 -9.31572315 -185.09301758 -4.33984375 C-186.05232178 -3.9221875 -187.01162598 -3.50453125 -188 -3.07421875 C-188.845625 -2.69869873 -189.69125 -2.32317871 -190.5625 -1.9362793 C-193.03359863 -0.98709428 -195.39430539 -0.44116504 -198 0 C-196.63903038 -4.08290886 -193.9015564 -5.38797706 -190.4375 -7.625 C-189.76493164 -8.06376465 -189.09236328 -8.5025293 -188.39941406 -8.95458984 C-170.4306765 -20.53805279 -151.98895549 -29.51254232 -131 -34 C-130.12859375 -34.21269531 -129.2571875 -34.42539062 -128.359375 -34.64453125 C-82.95810705 -45.67735685 -35.79236185 -27.21963107 0 0 Z " fill="#1875D0" transform="translate(753,456)"/>
<path d="M0 0 C98.13227459 0 98.13227459 0 118.125 18.5625 C131.88968716 32.78239729 135.39009201 49.50070944 135.1484375 68.65625 C134.70287205 85.74843278 126.53996455 100.26553922 114.38671875 111.96484375 C106.21318601 118.93441913 96.5897883 123.57257018 86 125 C94.18859812 139.38216764 102.40423257 153.74579816 110.76245117 168.03027344 C115.79852311 176.64058644 120.78699285 185.27777839 125.76391602 193.92236328 C126.34584717 194.93282715 126.92777832 195.94329102 127.52734375 196.984375 C128.37594971 198.46067383 128.37594971 198.46067383 129.24169922 199.96679688 C130.48135254 202.10529353 131.73424978 204.23613976 132.99658203 206.36132812 C133.63837402 207.44349609 134.28016602 208.52566406 134.94140625 209.640625 C135.52736572 210.62063477 136.1133252 211.60064453 136.71704102 212.61035156 C138 215 138 215 138 217 C129.75 217 121.5 217 113 217 C111.47647173 214.35921766 109.952948 211.71843269 108.42944336 209.07763672 C107.08267577 206.74328358 105.73584393 204.40896765 104.38891602 202.07470703 C100.97622702 196.16021511 97.56460594 190.24511559 94.15625 184.328125 C86.88019477 171.69993028 79.57136178 159.09159754 72.21875 146.5078125 C71.70054688 145.61868164 71.18234375 144.72955078 70.6484375 143.81347656 C69.45356065 141.77411624 68.24919417 139.74030636 67.0390625 137.70996094 C66.39710937 136.6274707 65.75515625 135.54498047 65.09375 134.4296875 C64.50271484 133.43952637 63.91167969 132.44936523 63.30273438 131.42919922 C62 129 62 129 62 127 C48.8 127 35.6 127 22 127 C22 156.7 22 186.4 22 217 C14.74 217 7.48 217 0 217 C0 145.39 0 73.78 0 0 Z " fill="#FBFBFB" transform="translate(980,508)"/>
<path d="M0 0 C3.14561189 2.9428296 4.83107854 6.2881507 6.6875 10.125 C7.03635254 10.8380127 7.38520508 11.55102539 7.74462891 12.28564453 C8.47557836 13.78463247 9.20339558 15.28515144 9.92822266 16.78710938 C10.92198017 18.83891303 11.93339992 20.88093214 12.94921875 22.921875 C17.25069602 31.68422439 20.92194629 40.64477879 24.4375 49.75 C24.87497559 50.88163574 25.31245117 52.01327148 25.76318359 53.17919922 C33.55571936 73.67433983 29.75400007 91.7733179 23 112 C22.74311401 112.77202759 22.48622803 113.54405518 22.22155762 114.33947754 C11.46764675 146.57280657 -0.22820125 178.36253281 -15 209 C-15.2917511 209.60541626 -15.5835022 210.21083252 -15.88409424 210.83459473 C-24.36887461 228.41072891 -33.27996236 245.59470879 -43.38134766 262.30957031 C-44.94620234 264.91058066 -46.48306676 267.52602166 -48.01171875 270.1484375 C-55.44031091 282.8291703 -63.58218748 294.95758215 -72 307 C-72.47179687 307.67788574 -72.94359375 308.35577148 -73.4296875 309.05419922 C-84.25044216 324.56804633 -95.94269986 339.43331252 -108 354 C-108.48210937 354.58265625 -108.96421875 355.1653125 -109.4609375 355.765625 C-119.39869892 367.73486251 -129.90798937 379.09498059 -140.90673828 390.09204102 C-142.50453893 391.69204519 -144.09411551 393.29993615 -145.68359375 394.90820312 C-152.132159 401.39197759 -158.81939666 407.32088539 -166 413 C-167.32885678 414.09622904 -168.65471328 415.19611247 -169.9765625 416.30078125 C-208.27629591 448.01718456 -208.27629591 448.01718456 -220 447 C-223.48297096 445.91373052 -226.82373147 444.53286257 -230.1875 443.125 C-231.08919922 442.76019531 -231.99089844 442.39539063 -232.91992188 442.01953125 C-236.53038612 440.54093458 -239.74197173 439.17201884 -243 437 C-242.16452637 436.45174561 -241.32905273 435.90349121 -240.46826172 435.33862305 C-237.29189389 433.25180819 -234.12107719 431.15667947 -230.95166016 429.05932617 C-229.59372574 428.16228485 -228.23440436 427.26733865 -226.87353516 426.37475586 C-214.60113192 418.32184285 -202.96376217 409.63293043 -191.875 400 C-191.2977417 399.50056885 -190.7204834 399.0011377 -190.12573242 398.48657227 C-180.82537288 390.4044666 -171.91628867 382.00612908 -163.1875 373.3125 C-161.98637573 372.11838501 -161.98637573 372.11838501 -160.76098633 370.90014648 C-155.96816751 366.09434306 -151.40746286 361.15994004 -147 356 C-146.02673675 354.88220691 -145.05280679 353.76499388 -144.078125 352.6484375 C-95.59750511 296.68519665 -58.02331284 230.5712142 -33 161 C-32.53566838 159.72318018 -32.07098295 158.44648899 -31.60595703 157.16992188 C-13.12853205 106.29102234 -3.29046271 53.98498984 0 0 Z " fill="#1875D0" transform="translate(826,550)"/>
<path d="M0 0 C18.97796998 14.97366685 28.67195403 35.86466922 31.66015625 59.52734375 C32.07710442 64.95257526 31.9921875 70.40642636 31.9921875 75.84765625 C-32.8528125 76.34265625 -32.8528125 76.34265625 -99.0078125 76.84765625 C-94.71643333 94.01317294 -89.57390187 107.72748839 -74.6328125 117.66015625 C-61.8108445 125.33552876 -48.18373346 127.85437272 -33.3828125 125.28515625 C-18.4881568 121.18414206 -7.03859985 112.12517693 0.8125 98.9375 C1.39644531 97.90302734 1.39644531 97.90302734 1.9921875 96.84765625 C9.00913232 98.10163498 16.00774757 99.42349713 22.9921875 100.84765625 C23.9921875 103.84765625 23.9921875 103.84765625 23.1640625 106.08984375 C12.56974636 125.70679177 -4.00444441 139.80787006 -25.40087891 146.33862305 C-45.31362627 152.11627241 -65.08664556 148.98185969 -83.14453125 139.17578125 C-102.90838595 127.72447277 -115.52361676 108.07385969 -121.6875 86.46484375 C-126.76759157 64.26553951 -122.08765364 40.4696954 -110.3125 21.2421875 C-106.5647232 15.49570589 -101.87052418 10.65290605 -97.0078125 5.84765625 C-96.35167969 5.18121094 -95.69554687 4.51476562 -95.01953125 3.828125 C-69.18832949 -20.67556318 -28.12217627 -20.12379107 0 0 Z " fill="#FBFBFB" transform="translate(1674.0078125,857.15234375)"/>
<path d="M0 0 C2.46392709 1.93870125 4.82945314 3.948775 7.1796875 6.0234375 C8.02144531 6.73371094 8.86320312 7.44398438 9.73046875 8.17578125 C30.42347768 26.04273433 43.94248753 53.2012211 46.8671875 80.3359375 C46.99547946 82.23029119 47.09753764 84.1265226 47.1796875 86.0234375 C47.25896484 87.77527344 47.25896484 87.77527344 47.33984375 89.5625 C48.06768277 121.1443846 37.07830375 150.36420356 15.58203125 173.55078125 C-3.71233998 193.40986578 -28.76149764 205.67626284 -56.64233398 206.30908203 C-87.13141249 206.59482785 -111.84169596 196.43023522 -133.85839844 175.26660156 C-139.59736393 169.63239756 -144.62405234 163.9223737 -148.8203125 157.0234375 C-149.48675781 155.93160156 -150.15320312 154.83976563 -150.83984375 153.71484375 C-162.49027524 134.18578095 -166.95527401 114.97665839 -167.0703125 92.3984375 C-167.07957764 91.26664063 -167.08884277 90.13484375 -167.09838867 88.96875 C-166.98816449 59.22983336 -153.52068627 31.85036524 -133.0078125 10.7734375 C-97.21944682 -24.56198346 -41.02844511 -28.75400724 0 0 Z M-124.8203125 34.0234375 C-142.7653906 55.61472669 -147.02047005 82.18183759 -144.60205078 109.48779297 C-141.51990142 132.02702583 -127.985836 153.58840607 -110.44726562 167.79638672 C-91.39581389 182.16502364 -69.24103568 186.21281479 -45.8203125 184.0234375 C-39.49540349 182.88274832 -33.6478211 180.68874353 -27.8203125 178.0234375 C-26.90088867 177.60650635 -26.90088867 177.60650635 -25.96289062 177.18115234 C-18.08949685 173.50100909 -11.29329318 168.7904723 -4.8203125 163.0234375 C-4.07265625 162.36988281 -3.325 161.71632813 -2.5546875 161.04296875 C8.1310352 151.08581805 15.09796157 138.58033424 20.1796875 125.0234375 C20.49550781 124.22550781 20.81132813 123.42757812 21.13671875 122.60546875 C29.01510623 101.29889374 26.59920856 75.5832101 17.4921875 55.16796875 C13.14966757 45.83655328 7.85536036 37.83939942 1.1796875 30.0234375 C0.61894531 29.36085938 0.05820313 28.69828125 -0.51953125 28.015625 C-13.04302713 14.45113325 -32.8660884 4.13841846 -51.35302734 2.84643555 C-81.57868627 2.15485484 -104.19569745 11.10719856 -124.8203125 34.0234375 Z " fill="#FCFCFC" transform="translate(1381.8203125,522.9765625)"/>
<path d="M0 0 C2.13570961 0.02121007 4.26796512 0.00025333 6.40356445 -0.02539062 C31.32095927 -0.07783393 54.31630983 10.20834074 72.15551758 27.48632812 C101.7259949 57.30078628 111.51555113 101.11725376 111.40380859 141.86889648 C111.07000653 164.04596741 107.6377137 185.85194203 103.10083008 207.52148438 C102.92890137 208.36453125 102.75697266 209.20757813 102.57983398 210.07617188 C97.18619587 235.92270039 87.36539563 261.71879591 76.10083008 285.52148438 C75.76664063 286.23143555 75.43245117 286.94138672 75.08813477 287.67285156 C72.86680914 292.34731288 70.51344409 296.94330638 68.10083008 301.52148438 C67.66544922 302.35502441 67.23006836 303.18856445 66.78149414 304.04736328 C53.64318778 329.09310515 37.69481022 352.20492478 19.10083008 373.52148438 C17.91258881 374.9583717 16.72494315 376.39575215 15.53833008 377.83398438 C14.73395508 378.72085937 13.92958008 379.60773438 13.10083008 380.52148438 C12.44083008 380.52148438 11.78083008 380.52148438 11.10083008 380.52148438 C12.83642304 375.02543999 14.80901034 369.67354935 16.97583008 364.33398438 C22.39417407 350.88392017 27.15998635 337.43142324 29.49975586 323.07348633 C30.53382634 316.98972445 32.41168753 312.46061388 35.60083008 307.20898438 C45.71101781 289.71959593 53.33941804 271.53227069 60.10083008 252.52148438 C60.38941895 251.73209473 60.67800781 250.94270508 60.9753418 250.12939453 C67.45427858 232.40518184 71.37027198 213.9296598 74.41333008 195.33398438 C74.57269043 194.368396 74.73205078 193.40280762 74.89624023 192.40795898 C78.72848308 167.59978493 80.23067201 138.04085212 74.10083008 113.52148438 C73.88620117 112.66039062 73.67157227 111.79929687 73.45043945 110.91210938 C70.78139935 100.50064716 67.80324457 90.21549927 63.10083008 80.52148438 C62.79306641 79.88291504 62.48530273 79.2443457 62.16821289 78.58642578 C49.69191479 53.01179192 32.03278277 34.83805603 4.88598633 25.40429688 C-6.92101412 21.55754524 -18.53831422 20.21632538 -30.89916992 19.52148438 C-29.10040175 12.9406252 -27.18276305 7.36872995 -21.21435547 3.40161133 C-14.38131223 -0.08822621 -7.51364821 -0.08836587 0 0 Z " fill="#1875D0" transform="translate(529.899169921875,501.478515625)"/>
<path d="M0 0 C18.8002986 0.21917447 38.52528311 12.59654308 51.5 25.4375 C67.09234284 41.77019868 77.69117972 63.44025637 82.5 85.4375 C82.68046875 86.24654785 82.8609375 87.0555957 83.046875 87.88916016 C88.17560625 111.77847843 87.73131234 136.29821895 84.5 160.4375 C84.37641113 161.39897949 84.25282227 162.36045898 84.12548828 163.35107422 C79.31504475 199.78799742 79.31504475 199.78799742 71.5 214.4375 C70.84 214.4375 70.18 214.4375 69.5 214.4375 C69.35304688 213.35597656 69.20609375 212.27445313 69.0546875 211.16015625 C67.66830778 201.47369779 65.82866242 191.95780662 63.5625 182.4375 C63.32192871 181.41277588 63.08135742 180.38805176 62.83349609 179.33227539 C61.63907466 174.43055053 60.28955658 169.84163597 58.34765625 165.18359375 C55.94334195 158.78469197 55.91552786 152.39615548 55.88607788 145.64672852 C55.8671756 141.98374782 55.77914519 138.32222636 55.69921875 134.66015625 C55.67783592 133.58394516 55.67783592 133.58394516 55.65602112 132.48599243 C54.97353485 100.5467415 46.61175348 68.45613864 24.5 44.4375 C23.89027344 43.73625 23.28054688 43.035 22.65234375 42.3125 C14.01036284 32.91824475 1.4426944 25.77565822 -10.5 21.4375 C-11.82 21.4375 -13.14 21.4375 -14.5 21.4375 C-20.20818153 31.47626302 -20.20818153 31.47626302 -20.5 42.4375 C-18.46783086 44.26508836 -16.37168013 45.57441748 -14.0078125 46.9453125 C-10.06651274 49.29044725 -6.84658896 52.32551728 -3.5 55.4375 C-2.92636719 55.94667969 -2.35273438 56.45585938 -1.76171875 56.98046875 C6.59473951 64.76061955 18.93064865 80.42478919 19.68359375 92.34375 C19.62300781 93.0346875 19.56242188 93.725625 19.5 94.4375 C15.79053826 91.34628189 12.27173454 88.24266469 8.9375 84.75 C1.03395038 76.78565385 -8.01695695 70.11138117 -17.5625 64.25 C-18.18133057 63.86336182 -18.80016113 63.47672363 -19.43774414 63.07836914 C-23.0244423 60.95068348 -25.37887878 60.25995994 -29.5 60.4375 C-30.73826518 64.80996528 -31.9661653 69.18527935 -33.1875 73.5625 C-33.37217834 74.22330566 -33.55685669 74.88411133 -33.74713135 75.56494141 C-36.04415883 83.8099902 -38.13371301 92.0549141 -39.875 100.4375 C-43.28807251 116.41939484 -49.2882643 131.68845192 -54.90234375 147 C-60.03080243 161.00672312 -64.52767233 175.05985187 -68.5 189.4375 C-68.93212014 190.95968412 -69.3643999 192.48182294 -69.796875 194.00390625 C-73.45937212 207.16100513 -76.16438979 220.54620123 -78.94921875 233.91015625 C-79.08677582 234.56795578 -79.22433289 235.22575531 -79.36605835 235.90348816 C-80.31354004 240.46104019 -81.18509499 245.02904552 -81.98364258 249.61499023 C-82.5 251.4375 -82.5 251.4375 -84.5 253.4375 C-86.74658203 253.66455078 -86.74658203 253.66455078 -89.5078125 253.6328125 C-90.49394531 253.62636719 -91.48007812 253.61992188 -92.49609375 253.61328125 C-94.04490234 253.58814453 -94.04490234 253.58814453 -95.625 253.5625 C-96.66527344 253.55347656 -97.70554687 253.54445313 -98.77734375 253.53515625 C-101.35179092 253.51153747 -103.92578212 253.47860149 -106.5 253.4375 C-106.81220415 245.98541136 -105.93040181 239.2148493 -104.375 231.9375 C-104.15054199 230.85799072 -103.92608398 229.77848145 -103.69482422 228.66625977 C-102.9777007 225.25339253 -102.24177473 221.84508849 -101.5 218.4375 C-101.26474609 217.34679199 -101.02949219 216.25608398 -100.78710938 215.13232422 C-94.19971175 184.83120249 -29.6851277 1.47531508 0 0 Z " fill="#1874CF" transform="translate(492.5,539.5625)"/>
<path d="M0 0 C1.14339844 0.38542969 2.28679687 0.77085937 3.46484375 1.16796875 C21.4507254 7.65295992 36.5773107 18.11101526 46.28515625 34.859375 C47.27556106 37.82517737 47.30934174 39.12863653 46 42 C43.31085729 43.38668321 40.9646797 44.37664034 38.125 45.3125 C37.39152344 45.57611328 36.65804688 45.83972656 35.90234375 46.11132812 C32.83240541 47.1877637 30.27338652 48 27 48 C25.7109375 46.09375 25.7109375 46.09375 24.375 43.5 C16.59329633 29.99645539 2.53336677 23.96919681 -12 20 C-31.01085199 16.38514339 -51.39686443 17.32056198 -68.125 27.5 C-69.76531544 28.64503335 -71.39268443 29.80908743 -73 31 C-73.59167969 31.39832031 -74.18335938 31.79664063 -74.79296875 32.20703125 C-80.22895177 36.16174383 -83.90242136 42.70726408 -86 49 C-86.73472896 60.39432119 -86.32004091 68.51993863 -79.875 78.1875 C-71.93273081 86.95810401 -59.71262082 89.7133727 -48.6875 92.4375 C-47.82576172 92.652854 -46.96402344 92.86820801 -46.07617188 93.09008789 C-40.08081642 94.56117048 -34.06457629 95.7915702 -28 96.9375 C-7.17305153 100.97246653 15.2035024 107.09822589 31 122 C31.639375 122.55042969 32.27875 123.10085938 32.9375 123.66796875 C42.46451019 132.31208791 46.06500147 143.9305143 47.3515625 156.41015625 C47.98542347 171.20580577 42.37703444 184.1330939 33.0078125 195.39453125 C24.22737767 204.83430276 12.95888687 210.57453621 1 215 C0.23171875 215.29648437 -0.5365625 215.59296875 -1.328125 215.8984375 C-25.00010542 224.49868938 -52.77182143 221.16799624 -75.38110352 210.93261719 C-91.23142077 203.21823947 -102.86549576 192.28345675 -110 176 C-107.31476816 172.6459192 -104.03958259 171.70218363 -100.0625 170.3125 C-98.83660156 169.87550781 -97.61070312 169.43851563 -96.34765625 168.98828125 C-93 168 -93 168 -89 168 C-88.74347656 168.556875 -88.48695313 169.11375 -88.22265625 169.6875 C-81.62340381 182.84156546 -69.2293921 189.3734429 -55.8046875 194.1328125 C-36.38367894 199.70485674 -15.41449218 198.07503253 3 190 C12.15321942 184.88716626 19.78068265 177.88339685 23.3359375 167.8359375 C25.32981603 159.32090331 25.16849788 150.86155841 20.64453125 143.234375 C7.2940562 125.09548728 -17.56216263 122.00780286 -38.08203125 117.73046875 C-60.84883321 112.96777577 -86.2649398 107.25901382 -100.90234375 87.421875 C-109.25209928 74.11126228 -111.21237023 58.74452542 -108.31640625 43.37109375 C-103.02765868 26.53927057 -91.39352294 14.32267591 -76.12451172 5.97460938 C-53.34352346 -5.83818638 -24.39540057 -8.52035037 0 0 Z " fill="#FBFBFB" transform="translate(1087,786)"/>
<path d="M0 0 C0.66 0 1.32 0 2 0 C5.58103691 32.79192219 5.58103691 32.79192219 5.91943359 44.48339844 C5.97991523 46.37262476 6.05885949 48.26127472 6.14697266 50.14941406 C7.28344583 75.65692298 7.28344583 75.65692298 0.27978516 86.03857422 C-1.25514698 88.39104365 -2.6343942 90.81023016 -4.01953125 93.25390625 C-26.08968058 132.11185189 -50.86874018 169.26593955 -79 204 C-79.68449219 204.84820313 -80.36898437 205.69640625 -81.07421875 206.5703125 C-92.56105065 220.71746992 -104.40934709 234.62969787 -117.4296875 247.3984375 C-119.17913223 249.18269706 -120.80715582 251.04396124 -122.4375 252.9375 C-127.75726705 259.08848065 -133.51441844 264.66605937 -139.6796875 269.9609375 C-142.03996647 272.03512205 -144.33865816 274.16380195 -146.63427734 276.30883789 C-159.0112448 287.85935378 -172.34696648 298.0094469 -186 308 C-187.10988281 308.81791016 -187.10988281 308.81791016 -188.2421875 309.65234375 C-190.22944199 311.10399991 -192.2341445 312.52593331 -194.25 313.9375 C-194.82073242 314.35636475 -195.39146484 314.77522949 -195.97949219 315.20678711 C-200.26434436 318.12947949 -203.97297856 318.9152973 -209 318 C-213.26235928 316.72944742 -217.36987569 315.14513325 -221.5 313.5 C-222.60859375 313.07074219 -223.7171875 312.64148438 -224.859375 312.19921875 C-227.57780314 311.14465611 -230.29082529 310.07806294 -233 309 C-233 308.34 -233 307.68 -233 307 C-231.38256349 305.80530258 -229.70109405 304.69723216 -228 303.625 C-199.38179766 284.98286115 -173.63497345 261.6670956 -149.5 237.625 C-148.24485596 236.37686523 -148.24485596 236.37686523 -146.96435547 235.10351562 C-142.64407155 230.77196064 -138.47648628 226.36841527 -134.48828125 221.72900391 C-132.62507563 219.56443334 -130.68769216 217.47289505 -128.75 215.375 C-124.20277549 210.33535186 -120.0347757 205.05229136 -115.87890625 199.69140625 C-113.49841408 196.62312622 -111.06517173 193.60200201 -108.61547852 190.58886719 C-65.44228347 137.32424718 -33.04379462 75.27111967 -5.63671875 12.73095703 C-3.77375599 8.4801683 -1.89029693 4.23870154 0 0 Z " fill="#1875D0" transform="translate(873,700)"/>
<path d="M0 0 C1.5169043 -0.00483398 1.5169043 -0.00483398 3.06445312 -0.00976562 C24.55484452 0.14245221 41.89977443 9.27477443 56.9375 24.3125 C72.10092327 41.2027188 79.78992122 61.85489906 79.21875 84.53515625 C77.55608993 106.86560476 69.40595538 125.09152516 53.9375 141.3125 C53.39738281 141.93898438 52.85726563 142.56546875 52.30078125 143.2109375 C42.37704172 154.25953416 24.49038501 162.00981208 9.9375 163.3125 C-13.28755992 164.18978855 -32.24178823 159.13606304 -50.0625 143.3125 C-51.09117188 142.42498047 -51.09117188 142.42498047 -52.140625 141.51953125 C-67.07496715 127.73172324 -75.38966426 107.10739306 -76.4140625 87.046875 C-77.01696922 64.79616599 -71.69007017 46.09167072 -58.0625 28.3125 C-57.44761719 27.50039063 -56.83273437 26.68828125 -56.19921875 25.8515625 C-42.6053174 9.25943451 -21.22838268 -0.33954547 0 0 Z M-40.0625 40.3125 C-53.32811049 56.26220289 -55.63235801 73.21638727 -54.0625 93.3125 C-51.56675642 109.74596308 -41.66874157 123.34955851 -28.5546875 133.1953125 C-15.08776752 141.81240921 -0.10690742 143.54963074 15.375 140.1875 C29.89104066 135.86272099 41.3243616 126.32475186 48.9375 113.3125 C56.94095157 97.68874083 60.157688 79.93801431 54.8125 62.875 C49.76000299 47.93419933 39.33445302 33.98082584 24.984375 26.84375 C21.99854265 25.55339029 19.0036615 24.3966676 15.9375 23.3125 C15.27234375 23.065 14.6071875 22.8175 13.921875 22.5625 C-6.31925428 16.22614649 -26.22545584 25.91638335 -40.0625 40.3125 Z " fill="#FCFCFC" transform="translate(1343.0625,842.6875)"/>
<path d="M0 0 C9.4875 -0.103125 18.975 -0.20625 28.75 -0.3125 C31.7209668 -0.35802002 34.69193359 -0.40354004 37.75292969 -0.45043945 C40.14256669 -0.46506053 42.53221627 -0.47779735 44.921875 -0.48828125 C46.13439941 -0.51386108 47.34692383 -0.53944092 48.59619141 -0.5657959 C60.90043972 -0.57201017 71.07686333 3.44939985 80 12 C90.44497105 23.63667915 91.89998766 35.45183154 91.22216797 50.58886719 C90.3111367 60.47605927 84.23060152 69.04111804 77.1953125 75.7109375 C67.50845167 83.62924282 57.1569458 85.74639653 44.921875 85.48828125 C43.77412598 85.48324585 42.62637695 85.47821045 41.44384766 85.47302246 C37.212306 85.44713163 32.98112425 85.37732767 28.75 85.3125 C14.51875 85.1578125 14.51875 85.1578125 0 85 C0 56.95 0 28.9 0 0 Z " fill="#122023" transform="translate(1002,528)"/>
<path d="M0 0 C0.66 0 1.32 0 2 0 C2.15885302 5.64145014 1.68224764 10.60448872 0.42578125 16.09375 C0.26007126 16.84354126 0.09436127 17.59333252 -0.07637024 18.36584473 C-0.42790729 19.94663893 -0.78361934 21.52650996 -1.14331055 23.10546875 C-1.67926253 25.46375364 -2.19904756 27.82516072 -2.71679688 30.1875 C-4.6929343 39.06939402 -7.02118413 47.75166034 -9.83276367 56.40527344 C-10.84652883 59.52735629 -11.80513277 62.65786154 -12.73828125 65.8046875 C-15.75275738 75.67966305 -18.59703034 83.54957541 -26 91 C-27.12899133 92.2098293 -28.25362411 93.42373368 -29.375 94.640625 C-31.74427087 97.20725642 -34.13067908 99.75541497 -36.53515625 102.2890625 C-38.8431779 104.73413552 -41.07551771 107.22538078 -43.26757812 109.7746582 C-46.76041485 113.77715071 -50.42215357 117.56730923 -54.18359375 121.31640625 C-54.84279312 121.97656235 -55.50199249 122.63671844 -56.1811676 123.31687927 C-57.56396835 124.70035506 -58.94801076 126.08259083 -60.33325195 127.46362305 C-62.43230343 129.55731669 -64.5259594 131.65629874 -66.61914062 133.75585938 C-67.97363786 135.10969571 -69.32844531 136.46322175 -70.68359375 137.81640625 C-71.29843124 138.43326797 -71.91326874 139.0501297 -72.54673767 139.6856842 C-76.87020218 143.98633783 -81.37511932 148.02695961 -86 152 C-87.10592759 152.96171219 -88.21147707 153.92385964 -89.31640625 154.88671875 C-129.22736123 189.41088173 -129.22736123 189.41088173 -139.65966797 189.27197266 C-144.08011585 188.75826736 -148.00374269 186.9339585 -152.0625 185.1875 C-152.92166016 184.83107422 -153.78082031 184.47464844 -154.66601562 184.10742188 C-157.11744823 183.08677194 -159.55993762 182.04749894 -162 181 C-162.71913574 180.69271973 -163.43827148 180.38543945 -164.17919922 180.06884766 C-165.78697117 179.38118859 -167.39363275 178.69093408 -169 178 C-165.10357121 173.82363361 -160.90137361 170.70188656 -156.1875 167.5 C-148.04584917 161.86408397 -140.36945995 155.78555751 -132.76025391 149.45605469 C-130.30050522 147.42138879 -127.80305203 145.43426675 -125.3125 143.4375 C-120.04445704 139.12656395 -115.07107693 134.52998402 -110.1015625 129.8828125 C-107.54760484 127.49632747 -104.94153171 125.17879068 -102.3125 122.875 C-97.31509571 118.39541885 -92.56531533 113.67447102 -87.8125 108.9375 C-87.05171143 108.18130371 -86.29092285 107.42510742 -85.50708008 106.64599609 C-81.37182491 102.49946091 -77.4048919 98.26630619 -73.58374023 93.82885742 C-71.32607268 91.22176822 -68.97566187 88.71110847 -66.625 86.1875 C-62.3312462 81.53961458 -58.2646816 76.75583652 -54.296875 71.82421875 C-52.27467062 69.33773275 -50.20838121 66.89714201 -48.11791992 64.46801758 C-30.72475848 44.21272962 -14.80414488 22.20621732 0 0 Z " fill="#1875D0" transform="translate(870,853)"/>
<path d="M0 0 C7.26 0 14.52 0 22 0 C22 16.17 22 32.34 22 49 C34.21 49 46.42 49 59 49 C59 56.26 59 63.52 59 71 C46.79 71 34.58 71 22 71 C22 114.89 22 158.78 22 204 C14.74 204 7.48 204 0 204 C0 160.11 0 116.22 0 71 C-9.24 71 -18.48 71 -28 71 C-28 63.74 -28 56.48 -28 49 C-18.76 49 -9.52 49 0 49 C0 32.83 0 16.66 0 0 Z " fill="#FAFAFA" transform="translate(1189,798)"/>
<path d="M0 0 C7.26 0 14.52 0 22 0 C22 71.61 22 143.22 22 217 C14.74 217 7.48 217 0 217 C0 145.39 0 73.78 0 0 Z " fill="#FAFAFA" transform="translate(1157,508)"/>
<path d="M0 0 C1.52270508 0.0009668 1.52270508 0.0009668 3.07617188 0.00195312 C7.96669738 0.03070213 12.63275129 0.16084429 17.4375 1.1875 C16.80118028 6.11706124 15.43086069 10.40693001 13.625 15 C13.37685547 15.67998047 13.12871094 16.35996094 12.87304688 17.06054688 C12.10546875 19.01953125 12.10546875 19.01953125 10.4375 22.1875 C7.55712762 23.30045022 4.92922937 23.25403578 1.875 23.109375 C-12.69558648 22.61486464 -22.8522422 24.20130406 -34.3046875 33.94140625 C-43.6253635 43.21370504 -48.70163909 54.37383243 -48.87480164 67.4655304 C-48.87696182 68.3624913 -48.87912201 69.25945221 -48.88134766 70.18359375 C-48.89139328 71.15036545 -48.9014389 72.11713715 -48.91178894 73.11320496 C-48.94248646 76.28379769 -48.95961866 79.4543065 -48.9765625 82.625 C-48.99528495 84.83317785 -49.01485916 87.04134863 -49.0352478 89.24951172 C-49.08646113 95.04278382 -49.12614463 100.83607908 -49.16339111 106.62945557 C-49.20349854 112.54860108 -49.2545601 118.46765111 -49.3046875 124.38671875 C-49.40131896 135.98691859 -49.48475141 147.58715821 -49.5625 159.1875 C-56.4925 159.1875 -63.4225 159.1875 -70.5625 159.1875 C-70.5625 108.0375 -70.5625 56.8875 -70.5625 4.1875 C-63.6325 4.1875 -56.7025 4.1875 -49.5625 4.1875 C-49.2325 10.7875 -48.9025 17.3875 -48.5625 24.1875 C-47.0465625 22.393125 -47.0465625 22.393125 -45.5 20.5625 C-33.49723645 7.04160035 -18.14010545 -0.21966986 0 0 Z " fill="#FDFDFD" transform="translate(1520.5625,842.8125)"/>
<path d="M0 0 C10.26945705 8.4540591 18.59697766 21.00728184 20.62890625 34.29296875 C20.62890625 36.60296875 20.62890625 38.91296875 20.62890625 41.29296875 C-15.34109375 41.29296875 -51.31109375 41.29296875 -88.37109375 41.29296875 C-87.12905018 27.63048953 -83.6712553 19.00704752 -75.37109375 8.29296875 C-74.74847656 7.45765625 -74.12585937 6.62234375 -73.484375 5.76171875 C-54.37281955 -16.56453457 -22.60848736 -16.27662105 0 0 Z " fill="#132124" transform="translate(1662.37109375,873.70703125)"/>
<path d="M0 0 C0.99 0.495 0.99 0.495 2 1 C0.99259766 1.89912109 0.99259766 1.89912109 -0.03515625 2.81640625 C-7.2894685 9.3680038 -14.29948749 16.16426062 -21.23141479 23.0541687 C-22.22944103 24.04545598 -23.22916939 25.03503305 -24.23074341 26.0227356 C-30.96056161 32.66685056 -37.09853683 39.60976539 -43 47 C-43.9349252 48.10170456 -44.87626362 49.19805093 -45.828125 50.28515625 C-98.84166077 111.07971098 -138.87337517 197.35787675 -146.54296875 278.18359375 C-147 281 -147 281 -149 283 C-151.6796875 283.23046875 -151.6796875 283.23046875 -154.875 283.1875 C-155.92429687 283.18105469 -156.97359375 283.17460938 -158.0546875 283.16796875 C-160.54066704 283.02619538 -162.62847586 282.7160399 -165 282 C-164.94103249 259.97563374 -159.58283118 237.93716924 -153 217 C-152.66516602 215.92733887 -152.33033203 214.85467773 -151.98535156 213.74951172 C-146.30069371 195.71382077 -139.7537495 178.26583886 -132 161 C-131.62020996 160.1440625 -131.24041992 159.288125 -130.84912109 158.40625 C-113.80781133 120.20678061 -89.64862559 84.2964212 -61.32421875 53.54296875 C-59.39894094 51.43648833 -57.53405819 49.2998352 -55.6875 47.125 C-47.28539234 37.4971731 -38.04900992 28.88157641 -28 21 C-27.23816406 20.3709375 -26.47632813 19.741875 -25.69140625 19.09375 C-18.2777538 12.99280161 -10.39729155 7.55957258 -2.51538086 2.08813477 C-1.02840516 1.08238434 -1.02840516 1.08238434 0 0 Z " fill="#1874CE" transform="translate(473,511)"/>
<path d="M0 0 C-0.41773682 0.4125 -0.83547363 0.825 -1.26586914 1.25 C-11.10831814 10.87635932 -11.10831814 10.87635932 -20.34765625 21.0703125 C-22.41558631 23.48534193 -24.58607434 25.79565725 -26.75 28.125 C-75.19844936 81.39637192 -115.38770276 159.99575468 -118.69140625 232.77734375 C-119 235 -119 235 -121 237 C-124.00390625 237.23046875 -124.00390625 237.23046875 -127.5625 237.1875 C-129.32787109 237.17783203 -129.32787109 237.17783203 -131.12890625 237.16796875 C-134 237 -134 237 -135 236 C-136.07171366 173.45785265 -100.11099661 103.557312 -62 56 C-61.19949219 54.98679687 -60.39898437 53.97359375 -59.57421875 52.9296875 C-54.80955538 46.98866852 -49.74814854 41.36716189 -44.5703125 35.7890625 C-42.41922571 33.4549045 -40.32074342 31.09253383 -38.25 28.6875 C-10.30789509 -3.43596503 -10.30789509 -3.43596503 0 0 Z " fill="#1874CE" transform="translate(412,557)"/>
<path d="M0 0 C0.66 0.33 1.32 0.66 2 1 C-1.96 4.465 -1.96 4.465 -6 8 C-6.66 7.34 -7.32 6.68 -8 6 C-5.36 4.02 -2.72 2.04 0 0 Z " fill="#1764AF" transform="translate(473,511)"/>
</svg>
